<?xml version="1.0" encoding="utf-8"?>
<!-- Generator: Adobe Illustrator 21.0.2, SVG Export Plug-In . SVG Version: 6.00 Build 0)  -->
<svg version="1.1" id="Layer_1" xmlns="http://www.w3.org/2000/svg" xmlns:xlink="http://www.w3.org/1999/xlink" x="0px" y="0px"
	 viewBox="0 0 181.7 57" style="enable-background:new 0 0 181.7 57;" xml:space="preserve">
<style type="text/css">
	.st0{fill:#529ED5;}
	.st1{fill:#FFFFFF;}
</style>
<g>
	<g>
		<g>
			<path class="st0" d="M9.9,51.9v-6.2h2.1c1.3,0,1.9,0.7,1.9,1.7c0,1-0.7,1.7-2.3,1.7h-1.1v2.7H9.9z M10.6,48.6h1.2
				c1.1,0,1.5-0.4,1.5-1.1s-0.4-1.1-1.4-1.1h-1.3V48.6z"/>
			<path class="st0" d="M16.9,51.9v-6.2h0.7v5.6h2.9v0.6H16.9z"/>
			<path class="st0" d="M22.6,51.9l1.9-6.2h1l1.9,6.2h-0.7L26.1,50h-2.2l-0.6,1.9H22.6z M24.1,49.4H26l-0.9-3.2H25L24.1,49.4z"/>
			<path class="st0" d="M30.3,51.9v-6.2h1l2.7,4.7h0v-4.7h0.6v6.2H34l-3.1-5.5h0v5.5H30.3z"/>
			<path class="st0" d="M38.1,51.9v-6.2h1l2.7,4.7h0v-4.7h0.6v6.2h-0.6l-3.1-5.5h0v5.5H38.1z"/>
			<path class="st0" d="M46.8,45.8v6.2h-0.7v-6.2H46.8z"/>
			<path class="st0" d="M50.5,51.9v-6.2h1l2.7,4.7h0v-4.7h0.6v6.2h-0.6l-3.1-5.5h0v5.5H50.5z"/>
			<path class="st0" d="M62.5,49v3h-0.6v-0.6h0C61.6,51.8,61,52,60.3,52c-1.4,0-2.4-1-2.4-3.2c0-2.2,1-3.2,2.4-3.2
				c1,0,1.8,0.5,2.2,1.8l-0.6,0.1c-0.3-1-0.8-1.4-1.5-1.4c-0.9,0-1.8,0.6-1.8,2.6c0,2,0.9,2.6,1.8,2.6c1,0,1.5-0.6,1.5-1.4v-0.5
				h-1.4V49H62.5z"/>
			<path class="st0" d="M74.3,49c-0.1,0.6-0.4,1.4-0.7,1.8c0.3,0.3,0.8,0.5,1,0.5v0.6h-0.2c-0.3,0-0.9-0.3-1.2-0.6
				c-0.4,0.4-1,0.7-1.8,0.7c-1,0-1.8-0.7-1.8-1.8c0-0.8,0.7-1.4,1.3-1.9c-0.2-0.4-0.5-1-0.5-1.5c0-0.7,0.5-1.2,1.4-1.2
				c0.7,0,1.3,0.4,1.3,1.1c0,0.7-0.7,1.3-1.3,1.7c0.4,0.7,1,1.4,1.4,1.9c0.2-0.3,0.4-0.9,0.6-1.6L74.3,49z M71.5,51.4
				c0.5,0,0.9-0.2,1.2-0.5c-0.6-0.6-1.1-1.3-1.6-2.1c-0.5,0.3-0.9,0.7-0.9,1.4C70.2,51.1,70.9,51.4,71.5,51.4z M71.5,48
				c0.4-0.3,0.9-0.7,0.9-1.2c0-0.4-0.3-0.6-0.6-0.6c-0.5,0-0.7,0.4-0.7,0.7C71.1,47.3,71.3,47.8,71.5,48z"/>
			<path class="st0" d="M82.7,45.8v6.2H82v-6.2H82.7z"/>
			<path class="st0" d="M86.4,51.9v-6.2h1l2.7,4.7h0v-4.7h0.6v6.2h-0.6L87,46.4h0v5.5H86.4z"/>
			<path class="st0" d="M93.5,45.8h0.7l1.5,5h0l1.5-5h0.7L96,51.9h-0.6L93.5,45.8z"/>
			<path class="st0" d="M104.4,45.8v0.6h-3v2.1h2.1V49h-2.1v2.4h3.2v0.6h-3.9v-6.2H104.4z"/>
			<path class="st0" d="M110.5,47.3c-0.2-0.6-0.6-1.1-1.4-1.1c-0.7,0-1.1,0.3-1.1,1c0,1.3,3.5,1,3.5,3c0,0.9-0.5,1.8-2.1,1.8
				c-1.3,0-1.9-0.9-2.2-1.6l0.6-0.2c0.2,0.6,0.7,1.2,1.6,1.2c0.9,0,1.4-0.5,1.4-1.1c0-1.6-3.5-1.1-3.5-3.1c0-0.9,0.7-1.6,1.9-1.6
				c1,0,1.7,0.5,2,1.5L110.5,47.3z"/>
			<path class="st0" d="M116.3,46.4v5.6h-0.7v-5.6h-1.8v-0.6h4.4v0.6H116.3z"/>
			<path class="st0" d="M125.6,51.9v-5.6h0l-1.7,5.6h-0.5l-1.7-5.6h0v5.6H121v-6.2h1.1l1.6,5h0l1.5-5h1.1v6.2H125.6z"/>
			<path class="st0" d="M133.5,45.8v0.6h-3v2.1h2.1V49h-2.1v2.4h3.2v0.6h-3.9v-6.2H133.5z"/>
			<path class="st0" d="M136.7,51.9v-6.2h1l2.7,4.7h0v-4.7h0.6v6.2h-0.6l-3.1-5.5h0v5.5H136.7z"/>
			<path class="st0" d="M146.4,46.4v5.6h-0.7v-5.6h-1.8v-0.6h4.4v0.6H146.4z"/>
			<path class="st0" d="M151,51.9l-0.5,1.3h-0.4l0.4-1.3h-0.3V51h0.8V51.9z"/>
			<path class="st0" d="M158.8,51.9v-6.2h0.7v5.6h2.9v0.6H158.8z"/>
			<path class="st0" d="M165.3,51.9v-6.2h0.7v5.6h2.9v0.6H165.3z"/>
			<path class="st0" d="M175.7,50.1c-0.3,1.1-0.9,1.9-2.2,1.9c-1.4,0-2.4-1-2.4-3.2c0-2,0.9-3.2,2.4-3.2c1.1,0,1.8,0.7,2.1,1.8
				l-0.6,0.2c-0.2-0.9-0.6-1.4-1.5-1.4c-0.9,0-1.6,0.8-1.6,2.6c0,1.8,0.7,2.6,1.7,2.6c0.9,0,1.3-0.7,1.5-1.5L175.7,50.1z"/>
		</g>
	</g>
	<g>
		<path class="st1" d="M17.6,34L29,8.6c0.2-0.5,0.3-0.9,0.3-1.1c0-0.4-0.3-0.7-0.9-0.8V6.3H35v0.5c-0.4,0.1-0.7,0.2-0.9,0.4
			c-0.2,0.2-0.4,0.7-0.8,1.6l-13,28.5c-0.3,0.6-0.4,1-0.4,1.2c0,0.5,0.3,0.8,0.9,0.9v0.5h-6.7v-0.5c0.6-0.1,0.9-0.4,0.9-0.9
			c0-0.2-0.1-0.6-0.4-1.2L7.9,22.5c-0.4-0.9-0.7-1.4-0.8-1.6c-0.2-0.2-0.5-0.3-0.9-0.4v-0.5h6.9v0.5c-0.6,0.1-0.9,0.4-0.9,0.8
			c0,0.3,0.1,0.6,0.3,1.1L17.6,34z"/>
		<path class="st1" d="M29.9,38.1V21.7c0-0.3-0.1-0.5-0.2-0.7c-0.1-0.2-0.4-0.3-0.7-0.4v-0.5h6.1v0.5c-0.3,0.1-0.6,0.2-0.7,0.4
			c-0.1,0.2-0.2,0.4-0.2,0.7v16.5c0,0.3,0.1,0.5,0.2,0.7c0.1,0.2,0.4,0.3,0.7,0.4v0.5H29v-0.5c0.3-0.1,0.6-0.2,0.7-0.4
			C29.8,38.7,29.9,38.4,29.9,38.1z"/>
		<path class="st1" d="M55.2,21.8l-2.3,4.6l-0.4-0.2c0-0.1,0-0.2,0-0.2c0-0.3-0.3-0.7-0.8-1c-1.7-1.2-3.7-1.8-6-1.8
			c-1,0-1.9,0.1-2.7,0.4c-0.6,0.2-1,0.5-1.4,0.9c-0.3,0.4-0.5,0.8-0.5,1.2c0,0.7,0.4,1.2,1.3,1.5c0.5,0.1,1.4,0.3,2.9,0.4l2.2,0.2
			c1.3,0.1,2.4,0.3,3.2,0.6c0.8,0.2,1.6,0.6,2.2,1c0.6,0.5,1.2,1.1,1.5,1.8c0.4,0.8,0.6,1.6,0.6,2.4c0,1.4-0.4,2.6-1.3,3.6
			c-0.8,1-2,1.7-3.7,2.2c-1.3,0.3-2.6,0.5-4,0.5c-2.6,0-5.1-0.6-7.6-1.9c-0.5-0.2-0.9-0.4-1-0.4c-0.1,0-0.3,0.1-0.6,0.3l-0.4-0.2
			l2.1-4.8l0.4,0.2c0,0.1,0,0.1,0,0.2c0,0.4,0.2,0.8,0.6,1.2c0.6,0.6,1.6,1,2.9,1.4c1.3,0.4,2.5,0.6,3.7,0.6c1.3,0,2.3-0.2,3.2-0.6
			c0.5-0.2,0.9-0.6,1.2-0.9c0.3-0.4,0.4-0.8,0.4-1.2c0-0.6-0.3-1.1-1-1.4c-0.5-0.2-1.5-0.4-2.9-0.5l-2.2-0.2
			c-1.5-0.2-2.5-0.3-3.1-0.4c-0.6-0.1-1.2-0.4-1.8-0.7c-0.9-0.4-1.5-1.1-2-1.9c-0.4-0.8-0.7-1.7-0.7-2.7c0-1.6,0.6-3,1.7-4.1
			c1.5-1.4,3.7-2.1,6.7-2.1c1.2,0,2.4,0.1,3.5,0.4c1.1,0.3,2.4,0.7,4,1.4c0.6,0.2,0.9,0.3,1,0.3c0.2,0,0.4-0.1,0.7-0.3L55.2,21.8z"
			/>
		<path class="st1" d="M57.6,38.1V21.7c0-0.3-0.1-0.5-0.2-0.7c-0.1-0.2-0.4-0.3-0.7-0.4v-0.5h6.1v0.5c-0.3,0.1-0.6,0.2-0.7,0.4
			c-0.1,0.2-0.2,0.4-0.2,0.7v16.5c0,0.3,0.1,0.5,0.2,0.7c0.1,0.2,0.4,0.3,0.7,0.4v0.5h-6.1v-0.5c0.3-0.1,0.6-0.2,0.7-0.4
			C57.5,38.7,57.6,38.4,57.6,38.1z"/>
		<path class="st1" d="M75.4,19.8c3.4,0,6.1,0.9,8.1,2.7c2.1,1.9,3.2,4.4,3.2,7.4c0,1.9-0.5,3.6-1.5,5.2c-2,3.2-5.2,4.7-9.7,4.7
			c-3.4,0-6-0.9-8-2.7c-1.1-1-1.9-2.2-2.4-3.5c-0.5-1.2-0.7-2.5-0.7-3.8c0-1.9,0.5-3.7,1.5-5.3C67.7,21.5,70.9,19.9,75.4,19.8z
			 M75.5,23.1c-1.9,0-3.4,0.6-4.6,1.7c-1.5,1.3-2.2,3-2.2,5.1c0,2.1,0.7,3.8,2.2,5.1c1.2,1.1,2.8,1.7,4.7,1.7c1.9,0,3.4-0.6,4.6-1.7
			c0.7-0.7,1.3-1.5,1.7-2.4c0.3-0.8,0.5-1.7,0.5-2.6c0-2.2-0.7-3.9-2.2-5.2C78.9,23.7,77.3,23.2,75.5,23.1z"/>
		<path class="st1" d="M93.1,26.3v11.8c0,0.3,0.1,0.5,0.2,0.7c0.1,0.2,0.4,0.3,0.7,0.4v0.5h-5.7v-0.5c0.3-0.1,0.6-0.2,0.7-0.4
			c0.1-0.2,0.2-0.4,0.2-0.7V21.7c0-0.3-0.1-0.5-0.2-0.7c-0.1-0.2-0.4-0.3-0.7-0.4v-0.5h6.6v0.5c-0.4,0.1-0.6,0.3-0.6,0.7
			c0,0.2,0.1,0.5,0.4,0.8l10.7,11.2V21.7c0-0.3-0.1-0.5-0.2-0.7c-0.1-0.2-0.4-0.3-0.7-0.4v-0.5h5.7v0.5c-0.3,0.1-0.6,0.2-0.7,0.4
			c-0.1,0.2-0.2,0.4-0.2,0.7v16.5c0,0.3,0.1,0.5,0.2,0.7c0.1,0.2,0.4,0.3,0.7,0.4v0.5h-6.1v-0.5c0.4-0.1,0.6-0.3,0.6-0.6
			c0-0.2-0.2-0.5-0.7-1L93.1,26.3z"/>
		<path class="st1" d="M126.8,34.7H118l-1.3,2.7c-0.2,0.4-0.3,0.7-0.3,0.9c0,0.4,0.3,0.7,1,0.9v0.5h-6.4v-0.5
			c0.4-0.1,0.7-0.2,0.9-0.4c0.2-0.2,0.4-0.6,0.7-1.1l7.2-14.9c0.2-0.5,0.3-0.9,0.3-1.1c0-0.4-0.3-0.7-0.8-0.9v-0.5h6.9v0.5
			c-0.6,0.2-0.8,0.4-0.8,0.8c0,0.3,0.1,0.6,0.3,0.9l7.4,15c0.3,0.6,0.6,1.1,0.8,1.3c0.2,0.2,0.6,0.4,1,0.5v0.5h-7.2v-0.5
			c0.6-0.1,0.9-0.4,0.9-0.9c0-0.2-0.1-0.5-0.3-0.9L126.8,34.7z M125.6,32l-3.2-6.9l-3.2,6.9H125.6z"/>
		<path class="st1" d="M140,31.7v6.5c0,0.3,0.1,0.5,0.2,0.7c0.1,0.2,0.4,0.3,0.7,0.4v0.5h-6.1v-0.5c0.3-0.1,0.6-0.2,0.7-0.4
			c0.1-0.2,0.2-0.4,0.2-0.7V21.7c0-0.3-0.1-0.5-0.2-0.7c-0.1-0.2-0.4-0.3-0.7-0.4v-0.5H147c1.5,0,2.7,0.1,3.5,0.3
			c0.9,0.2,1.6,0.5,2.3,0.9c0.7,0.5,1.3,1.2,1.7,2c0.4,0.8,0.5,1.7,0.5,2.6c0,3.2-1.8,5-5.3,5.6l3.8,5.4c0.7,0.9,1.2,1.5,1.5,1.8
			c0.3,0.3,0.7,0.4,1.1,0.4v0.5h-7v-0.5c0.5-0.1,0.7-0.2,0.7-0.5c0-0.2-0.2-0.6-0.7-1.2l-3.9-5.7H140z M140,28.5h6.6
			c1,0,1.7,0,2.1-0.1c0.4-0.1,0.8-0.2,1.1-0.4c0.7-0.4,1.1-1.1,1.1-2.1s-0.4-1.7-1.1-2.1c-0.3-0.2-0.7-0.3-1.1-0.4
			c-0.4-0.1-1.1-0.1-2.1-0.1H140V28.5z"/>
		<path class="st1" d="M167.1,31.5v6.6c0,0.3,0.1,0.5,0.2,0.7c0.1,0.2,0.4,0.3,0.7,0.4v0.5h-6.1v-0.5c0.3-0.1,0.6-0.2,0.7-0.4
			c0.1-0.2,0.2-0.4,0.2-0.7v-6.6L146.8,8.4c-0.5-0.8-1-1.3-1.3-1.5c-0.3-0.3-0.7-0.4-1.1-0.5V6h7.7v0.5c-0.6,0.1-1,0.4-1,0.9
			c0,0.2,0.2,0.5,0.6,1.1L165,27.8l3.6-5.2c0.4-0.6,0.6-0.9,0.6-1.1c0-0.2-0.1-0.4-0.3-0.6c-0.2-0.2-0.4-0.3-0.7-0.3v-0.5h7.5v0.5
			c-0.4,0.1-0.8,0.2-1.1,0.5c-0.3,0.3-0.7,0.8-1.3,1.5L167.1,31.5z"/>
	</g>
</g>
</svg>
