<?xml version="1.0" encoding="utf-8"?>
<!-- Generator: Adobe Illustrator 21.1.0, SVG Export Plug-In . SVG Version: 6.00 Build 0)  -->
<svg version="1.1" id="Layer_1" xmlns="http://www.w3.org/2000/svg" xmlns:xlink="http://www.w3.org/1999/xlink" x="0px" y="0px"
	 viewBox="0 0 763 322" style="enable-background:new 0 0 763 322;" xml:space="preserve">
<style type="text/css">
	.st0{fill:#133850;}
	.st1{fill:#D3D9DD;}
</style>
<rect x="-10" y="197.2" class="st0" width="783.3" height="239.9"/>
<path class="st1" d="M767.6,153.4H578.2l50.7-118.2c4.2-9.1,7.1-14.5,8.8-16.4c1.7-1.9,4.7-3.1,9.1-3.7v-4.8h-69.8V15
	c6.6,1.3,9.9,4.1,9.9,8.4c0,2.8-1.1,6.7-3.4,11.8L472.4,281.6l-57.3-120.4c-2.3-5.1-3.4-9-3.4-11.8c0-4.3,3.3-7.1,9.9-8.4v-4.8
	h-72.4v4.8c4.4,0.6,7.4,1.8,9.1,3.7c1.7,1.9,4.6,7.4,8.8,16.4l22.1,45.8H-741v262.6l1508.6-1.5V153.4z"/>
</svg>
